<svg width="97" height="96" xmlns="http://www.w3.org/2000/svg" xmlns:xlink="http://www.w3.org/1999/xlink" xml:space="preserve" overflow="hidden"><g transform="translate(-521 -12)"><g><g><g><g><path d="M604 95.6 584 76.6 604 57.6 604 95.6ZM539.2 98 559 79.3 560.4 78C565.8 72.9 574.3 72.9 579.7 78L581.1 79.3 600.8 98 539.2 98ZM536 57.5 556 76.5 536 95.5 536 57.5ZM550 32 590 32 590 65.3 581 73.9C574.5 68.9 565.5 68.9 559 73.9L550 65.3 550 32ZM596 34.7 596 26 582 26 570 16 558 26 544 26 544 34.8 530 48.1 530 104 610 104 610 48.1 596 34.7Z" fill="#FFFFFF" fill-rule="nonzero" fill-opacity="1"/><path d="M570 54.3C568.2 54.3 566.8 52.8 566.8 51.1 566.8 49.3 568.3 47.9 570 47.9 571.8 47.9 573.2 49.3 573.2 51.1 573.2 52.9 571.8 54.3 570 54.3ZM570 64C572.3 64 574.5 63.4 576.5 62.4 577.3 61.9 577.6 60.9 577.2 60.1 576.7 59.3 575.7 59 574.9 59.4 573.4 60.2 571.7 60.6 570 60.6 564.7 60.6 560.3 56.2 560.4 50.9 560.4 45.6 564.8 41.2 570.1 41.2 575.4 41.2 579.8 45.5 579.8 50.9L579.8 54.1C578 54.1 576.6 52.7 576.6 50.9 576.6 47.7 574.4 45 571.3 44.4 568.2 43.8 565.1 45.5 564 48.4 562.9 51.3 564 54.7 566.7 56.3 569.4 57.9 572.9 57.4 575 55 576.2 56.4 578 57.2 579.9 57.2 581.7 57.2 583.1 55.8 583.1 54L583.1 50.8C583.1 43.6 577.3 37.8 570.1 37.8 562.9 37.8 557.1 43.6 557.1 50.8 557 58.1 562.8 63.9 570 64Z" fill="#FFFFFF" fill-rule="nonzero" fill-opacity="1"/></g></g></g></g></g></svg>